<svg width="23" height="48" viewBox="0 0 23 48" fill="none" xmlns="http://www.w3.org/2000/svg">
<path d="M22.3 6.61007C22.2634 6.5511 22.2233 6.49433 22.18 6.44007C22.0288 6.23833 21.8301 6.07709 21.6016 5.97067C21.373 5.86424 21.1217 5.81595 20.87 5.83007C20.6695 5.83632 20.4735 5.89152 20.2992 5.99088C20.1249 6.09023 19.9776 6.23071 19.87 6.40007C19.7449 6.61748 19.6698 6.86001 19.65 7.11007C19.6394 7.19538 19.6193 7.27924 19.59 7.36007C19.5234 7.48792 19.4232 7.59513 19.3 7.67007C19 7.89007 17.2 8.76007 16.93 8.22007C16.85 8.07007 17.44 7.22007 17.52 7.06007C17.6139 6.85271 17.6625 6.6277 17.6625 6.40007C17.6625 6.17244 17.6139 5.94743 17.52 5.74007C17.2472 5.33748 16.8557 5.02989 16.4 4.86007C15.0698 4.27412 13.8251 3.51049 12.7 2.59007C12.0591 1.8953 11.3334 1.28384 10.54 0.770069C10.1383 0.526336 9.66355 0.431838 9.1991 0.503151C8.73464 0.574465 8.31013 0.807036 8.00002 1.16007C7.60987 0.871282 7.14641 0.697946 6.66251 0.659828C6.1786 0.621711 5.69372 0.720346 5.26317 0.944485C4.83261 1.16862 4.4737 1.50925 4.22738 1.92751C3.98106 2.34577 3.85723 2.82483 3.87002 3.31007C3.87002 3.55007 3.87002 3.84007 3.74002 4.01007C3.58811 4.11777 3.41372 4.18958 3.23002 4.22007C2.94409 4.3436 2.69868 4.54509 2.52184 4.8015C2.34501 5.05791 2.24388 5.3589 2.23002 5.67007C2.17002 6.28007 2.23002 6.90007 2.23002 7.51007C2.09078 8.41794 1.81075 9.29853 1.40002 10.1201C0.457093 12.0576 0.203115 14.2587 0.68002 16.3601C0.898633 16.9063 1.04975 17.4772 1.13002 18.0601C1.14662 18.461 1.1028 18.8622 1.00002 19.2501C0.83002 20.0401 0.630019 20.8301 0.400019 21.6001C0.218454 22.098 0.113918 22.6206 0.0900198 23.1501C0.127153 23.6469 0.193939 24.1412 0.29002 24.6301C0.323895 25.1139 0.248713 25.5992 0.0700193 26.0501C-0.187132 27.2406 -0.152825 28.4756 0.17002 29.6501C-0.052536 29.9341 -0.162873 30.29 -0.139981 30.6501C-0.106934 30.9974 -0.0121106 31.3361 0.14002 31.6501C0.503276 32.6164 0.745126 33.6241 0.860019 34.6501C0.893101 35.7273 0.826148 36.8052 0.660019 37.8701C0.671676 38.3893 0.569268 38.9047 0.360019 39.3801C0.185442 39.7391 0.0706013 40.1241 0.0200201 40.5201C-0.0834305 40.9407 -0.0670725 41.3818 0.0672432 41.7936C0.201559 42.2054 0.448467 42.5714 0.780019 42.8501C0.980112 42.9553 1.20404 43.007 1.43002 43.0001C1.48219 43.409 1.68553 43.7836 2.00002 44.0501C2.19361 44.196 2.4151 44.3005 2.65076 44.3573C2.88643 44.4141 3.13124 44.4218 3.37002 44.3801C3.87352 44.3 4.38651 44.3 4.89002 44.3801C4.95002 44.8301 5.02002 45.2801 5.08002 45.7301C5.14002 46.1801 5.08002 47.1501 5.47002 47.5701C5.63549 47.7111 5.8286 47.8159 6.03698 47.8779C6.24535 47.9399 6.46438 47.9577 6.68002 47.9301C7.79402 47.9323 8.9057 47.8285 10 47.6201C10.0955 47.6091 10.1857 47.5709 10.26 47.5101C10.42 47.3601 10.34 47.1001 10.26 46.9101C10.0823 46.4679 9.74254 46.1102 9.31002 45.9101C9.09671 45.8514 8.87949 45.8079 8.66002 45.7801C7.73002 45.5701 7.20002 44.6101 6.79002 43.7801C6.55002 43.2901 6.32002 42.7801 6.08002 42.3001C6.00912 42.1958 5.96322 42.0766 5.94588 41.9518C5.92853 41.8269 5.94022 41.6997 5.98002 41.5801C6.20002 41.1701 6.81002 41.2001 6.98002 40.6901C7.15002 40.1801 6.87002 39.6301 7.31002 39.1601C7.58002 38.8701 7.99002 38.7601 8.25002 38.4701C8.49463 38.1082 8.61404 37.6762 8.59002 37.2401C8.59002 36.6601 8.59002 35.9501 8.04002 35.7001C7.7514 35.619 7.4573 35.5588 7.16002 35.5201C6.87002 35.4301 6.61002 35.0901 6.79002 34.8501C6.97002 34.6101 7.16002 34.6901 7.37002 34.6701C8.70002 34.5501 8.82002 33.0701 8.88002 32.0401C8.90546 31.8308 8.90546 31.6193 8.88002 31.4101H9.03002C9.16374 31.4626 9.30666 31.4876 9.45026 31.4837C9.59386 31.4797 9.7352 31.4469 9.86585 31.3872C9.9965 31.3275 10.1138 31.242 10.2107 31.136C10.3076 31.03 10.3822 30.9055 10.43 30.7701C10.5348 30.4745 10.5632 30.1573 10.5125 29.8478C10.4618 29.5383 10.3336 29.2467 10.14 29.0001C10.31 29.2401 11.5 28.2601 11.6 28.1001C12.02 27.4401 11.6 26.5901 11.93 25.8601C13.0525 25.9823 14.1873 25.8064 15.22 25.3501C16.2542 24.8946 17.1061 24.106 17.64 23.1101C17.8121 22.8229 17.9254 22.5044 17.9735 22.1731C18.0215 21.8418 18.0034 21.5043 17.92 21.1801C17.8462 20.9924 17.7559 20.8117 17.65 20.6401L16.81 19.1201C16.3351 18.011 16.3029 16.7621 16.72 15.6301C16.9797 14.4213 17.5326 13.2949 18.33 12.3501C18.9663 11.5201 19.7748 10.8377 20.7 10.3501L20.92 10.2501C21.4222 10.0757 21.861 9.75534 22.18 9.33007C22.3541 9.04666 22.4665 8.72979 22.51 8.40007C22.6488 7.79705 22.5746 7.1646 22.3 6.61007Z" fill="#2897D4"/>
</svg>
