<svg width="44" height="36" viewBox="0 0 44 36" fill="none" xmlns="http://www.w3.org/2000/svg">
<path d="M22.9688 0.375C24.7461 0.375 26.25 1.87891 26.25 3.65625V16.3027C23.5156 18.4902 21.875 21.8398 21.875 25.5312C21.875 28.9492 23.2422 32.0254 25.498 34.2129C24.8828 34.9648 23.9941 35.375 22.9688 35.375H16.4062V29.9062C16.4062 28.1289 14.9023 26.625 13.125 26.625C11.2793 26.625 9.84375 28.1289 9.84375 29.9062V35.375H3.28125C1.43555 35.375 0 33.9395 0 32.0938V3.65625C0 1.87891 1.43555 0.375 3.28125 0.375H22.9688ZM4.375 18.9688C4.375 19.584 4.85352 20.0625 5.46875 20.0625H7.65625C8.20312 20.0625 8.75 19.584 8.75 18.9688V16.7812C8.75 16.2344 8.20312 15.6875 7.65625 15.6875H5.46875C4.85352 15.6875 4.375 16.2344 4.375 16.7812V18.9688ZM12.0312 15.6875C11.416 15.6875 10.9375 16.2344 10.9375 16.7812V18.9688C10.9375 19.584 11.416 20.0625 12.0312 20.0625H14.2188C14.7656 20.0625 15.3125 19.584 15.3125 18.9688V16.7812C15.3125 16.2344 14.7656 15.6875 14.2188 15.6875H12.0312ZM17.5 18.9688C17.5 19.584 17.9785 20.0625 18.5938 20.0625H20.7812C21.3281 20.0625 21.875 19.584 21.875 18.9688V16.7812C21.875 16.2344 21.3281 15.6875 20.7812 15.6875H18.5938C17.9785 15.6875 17.5 16.2344 17.5 16.7812V18.9688ZM5.46875 6.9375C4.85352 6.9375 4.375 7.48438 4.375 8.03125V10.2188C4.375 10.834 4.85352 11.3125 5.46875 11.3125H7.65625C8.20312 11.3125 8.75 10.834 8.75 10.2188V8.03125C8.75 7.48438 8.20312 6.9375 7.65625 6.9375H5.46875ZM10.9375 10.2188C10.9375 10.834 11.416 11.3125 12.0312 11.3125H14.2188C14.7656 11.3125 15.3125 10.834 15.3125 10.2188V8.03125C15.3125 7.48438 14.7656 6.9375 14.2188 6.9375H12.0312C11.416 6.9375 10.9375 7.48438 10.9375 8.03125V10.2188ZM18.5938 6.9375C17.9785 6.9375 17.5 7.48438 17.5 8.03125V10.2188C17.5 10.834 17.9785 11.3125 18.5938 11.3125H20.7812C21.3281 11.3125 21.875 10.834 21.875 10.2188V8.03125C21.875 7.48438 21.3281 6.9375 20.7812 6.9375H18.5938ZM43.75 25.5312C43.75 31 39.3066 35.375 33.9062 35.375C28.4375 35.375 24.0625 31 24.0625 25.5312C24.0625 20.1309 28.4375 15.6875 33.9062 15.6875C39.3066 15.6875 43.75 20.1309 43.75 25.5312ZM36.9141 22.5918L32.8125 26.7617L30.8301 24.7793C30.4199 24.3691 29.668 24.3691 29.2578 24.7793C28.8477 25.1895 28.8477 25.9414 29.2578 26.3516L31.9922 29.0859C32.4023 29.4961 33.1543 29.4961 33.5645 29.0859L38.4863 24.1641C38.8965 23.7539 38.8965 23.002 38.4863 22.5918C38.0762 22.1816 37.3242 22.1816 36.9141 22.5918Z" fill="#2897D4"/>
</svg>
